<svg version="1.2" xmlns="http://www.w3.org/2000/svg" viewBox="0 0 455 454" width="455" height="454">
	<title>logo-svg</title>
	<style>
		.s0 { fill: #d6d6d6 } 
	</style>
	<g id="g143">
		<path id="path2033" class="s0" d="m250.8 15.8l52 52c6.7 6.7 16.5 14.4 14.7 25-1.1 6.4-6.3 10.7-10.7 15-7.8 7.9-15.1 16.2-23 24-31.5 31.8-63.3 63.4-95 95l-28 28c-3.1 3.1-7.2 8.9-11.9 9.4-8.2 1-7.1-13.6-7.1-18.4v-65-69c0-10.4-2-23.3 2.4-33 7.8-17.1 30.4-32.7 43.6-46 9.8-9.8 23-29.3 37-32.4 11-2.5 19.3 8.7 26 15.4zm130 130.1c10.6 10 20.7 20.6 31 30.9 10.4 10.3 20.9 20.5 31 31 4.4 4.6 10.8 10.4 11.8 17 1.7 11-8.9 19.1-15.8 26l-48 48c-6.6 6.6-14.1 17.2-24 18.7-7.7 1.2-13.9-4.7-19-9.7-10-9.9-20-20-30-30l-30-30c-5.3-5.3-12-11-12.8-19-1-10.7 10.2-18.3 16.8-25 15.9-15.8 31.2-32.1 47-48 6.7-6.7 14.1-16.6 24-18.4 7-1.3 13.4 4 18 8.5zm-296.1 4.9c1 8.8 0.1 18.2 0.1 27v100c0 6.4 3.5 29.4-3.3 32.6-6.3 3-17.8-12.8-21.7-16.6l-42-42c-5.5-5.5-15.2-13.2-17.4-21-2.6-9.5 7.6-17.1 13.4-23l45-45c5.1-5 12.4-15.9 19.2-18.2 4.2-1.4 6.3 2.8 6.7 6.2zm166.1 137c16.6 16.5 32.5 33.5 49 50 6.6 6.6 17.7 14.2 18.9 24 1.2 11.2-9.8 19-16.9 26l-46 46c-6.2 6.3-13.3 16.2-22 19.2-11.3 3.8-19.9-7.1-27-14.2l-49-49c-6.5-6.5-17.1-14.2-18.6-24-1.6-10.6 9.1-18.4 15.6-25l47-47c6.2-6.1 13.5-16.6 22-19.3 11.4-3.6 19.9 6.1 27 13.3z"/>
	</g>
</svg>