<?xml version="1.0" encoding="UTF-8" standalone="no"?>
<!-- Created with Inkscape (http://www.inkscape.org/) -->

<svg
   version="1.1"
   id="svg137"
   width="454.80811"
   height="453.7518"
   viewBox="0 0 454.80811 453.7518"
   sodipodi:docname="logo.svg"
   inkscape:version="1.1.2 (1:1.1+202202050950+0a00cf5339)"
   xmlns:inkscape="http://www.inkscape.org/namespaces/inkscape"
   xmlns:sodipodi="http://sodipodi.sourceforge.net/DTD/sodipodi-0.dtd"
   xmlns="http://www.w3.org/2000/svg"
   xmlns:svg="http://www.w3.org/2000/svg">
  <defs
     id="defs141" />
  <sodipodi:namedview
     id="namedview139"
     pagecolor="#ffffff"
     bordercolor="#666666"
     borderopacity="1.0"
     inkscape:pageshadow="2"
     inkscape:pageopacity="0.0"
     inkscape:pagecheckerboard="0"
     showgrid="false"
     showguides="true"
     fit-margin-top="0"
     fit-margin-left="0"
     fit-margin-right="0"
     fit-margin-bottom="0"
     inkscape:zoom="0.6456"
     inkscape:cx="299.72119"
     inkscape:cy="282.68278"
     inkscape:window-width="1848"
     inkscape:window-height="1016"
     inkscape:window-x="72"
     inkscape:window-y="27"
     inkscape:window-maximized="1"
     inkscape:current-layer="g143" />
  <g
     inkscape:groupmode="layer"
     inkscape:label="Image"
     id="g143"
     transform="translate(-95.780197,-84.871229)">
    <path
       style="fill:#12b1e7;stroke:none"
       d="m 320.62566,85.224292 c -14.012,3.1659 -27.233,22.696698 -37,32.463698 -13.261,13.261 -35.821,28.838 -43.647,46 -4.421,9.693 -2.353,22.601 -2.353,33 v 69 65 c 0,4.8 -1.149,19.413 7.015,18.418 4.741,-0.577 8.852,-6.286 11.985,-9.418 l 28,-28 c 31.666,-31.666 63.41,-63.257 94.999,-95 7.816,-7.853 15.156,-16.152 23.001,-24 4.337,-4.338 9.593,-8.618 10.667,-15 1.786,-10.618 -8.022,-18.355 -14.667,-25 l -52,-52 c -6.756,-6.755898 -15.012,-17.946498 -26,-15.463698 m 138,137.032698 c -9.897,1.803 -17.32,11.751 -24,18.431 -15.836,15.836 -31.153,32.153 -47,48 -6.687,6.687 -17.869,14.315 -16.8,25 0.8,8.001 7.48,13.678 12.8,19 l 30,30 c 9.999,9.999 19.94,20.059 30,29.996 5.057,4.995 11.253,10.843 19,9.66 9.866,-1.507 17.401,-12.057 24,-18.656 l 48,-48 c 6.883,-6.883 17.458,-15.032 15.786,-26 -1.01,-6.619 -7.401,-12.373 -11.825,-17 -10.086,-10.547 -20.642,-20.681 -30.961,-31 -10.318,-10.318 -20.443,-20.887 -31,-30.961 -4.669,-4.455 -11.022,-9.74 -18,-8.47 m -284.834,7.232 c -6.843,2.265 -14.129,13.162 -19.166,18.199 l -45,45 c -5.8338,5.834 -16.043903,13.454 -13.423603,23 2.142,7.803 11.868903,15.443 17.423603,21 l 42,42 c 3.811,3.811 15.333,19.577 21.606,16.632 6.865,-3.223 3.394,-26.233 3.394,-32.632 v -100 c 0,-8.846 0.88,-18.209 -0.109,-26.999 -0.388,-3.452 -2.562,-7.578 -6.725,-6.2 m 145.834,129.852 c -8.565,2.685 -15.845,13.192 -22,19.347 l -47,47 c -6.545,6.545 -17.285,14.421 -15.656,25 1.501,9.749 12.131,17.475 18.656,24 l 49,49 c 7.035,7.035 15.685,17.968 27,14.146 8.689,-2.936 15.709,-12.855 22,-19.146 l 46,-46 c 7.035,-7.035 18.091,-14.788 16.811,-26 -1.126,-9.864 -12.263,-17.452 -18.811,-24 -16.499,-16.499 -32.487,-33.488 -49,-50 -7.178,-7.178 -15.598,-16.921 -27,-13.347 z"
       id="path2033" />
  </g>
</svg>
